<?xml version="1.0" encoding="UTF-8"?>
<!-- Generator: Adobe Illustrator 21.0.0, SVG Export Plug-In . SVG Version: 6.00 Build 0)  -->
<svg version="1.1" id="Layer_1" xmlns="http://www.w3.org/2000/svg" xmlns:xlink="http://www.w3.org/1999/xlink" x="0px" y="0px" viewBox="0 0 512 512" style="enable-background:new 0 0 512 512;" xml:space="preserve">
<g>
	<path d="M457.2,73.1H347.3V45.7v-0.2v-0.1c0-6.2-1.3-12.3-3.6-17.7c-3.5-8.2-9.3-15.1-16.5-20c-3.6-2.4-7.7-4.4-11.9-5.7   c-4.3-1.3-8.9-2-13.5-2h-0.1h-0.1h-91.3h-0.2H210c-6.2,0-12.3,1.3-17.7,3.6c-8.2,3.5-15.1,9.3-20,16.5c-2.4,3.6-4.4,7.7-5.7,11.9   c-1.3,4.3-2,8.9-2,13.5v0.1v27.5H54.9c-10.1,0-18.3,8.2-18.3,18.3c0,10.1,8.2,18.3,18.3,18.3h19.4L96,458.3l0,0   c0.4,7.3,2,14.4,4.8,20.7c4.2,9.7,11,18,19.7,23.9c4.3,2.9,9.2,5.2,14.3,6.8c5.1,1.5,10.5,2.3,16,2.3h210.3   c7.4,0,14.6-1.4,21.1-4.1c9.8-4.1,18.1-11,23.9-19.7s9.2-19,9.9-29.9l21.8-348.6h19.4c10.1,0,18.3-8.2,18.3-18.3   C475.5,81.3,467.3,73.1,457.2,73.1z M201.1,45.7v-0.1c0-1.3,0.3-2.4,0.7-3.5c0.7-1.6,1.8-3,3.3-4c0.7-0.5,1.5-0.9,2.3-1.1   c0.8-0.3,1.7-0.4,2.7-0.4h0.1h91.4h0.1c1.3,0,2.4,0.3,3.5,0.7c1.6,0.7,3,1.8,4,3.3c0.5,0.7,0.9,1.5,1.1,2.3   c0.3,0.8,0.4,1.7,0.4,2.7v0.1v27.4H201.1V45.7z M379.5,456c-0.2,3.3-0.9,6.1-2,8.5c-1.6,3.6-3.8,6.2-6.5,8   c-1.3,0.9-2.8,1.6-4.4,2.1c-1.6,0.5-3.4,0.8-5.5,0.8H150.9c-2.7,0-5-0.5-7-1.3c-3.1-1.3-5.6-3.4-7.6-6.3c-2-2.9-3.4-6.8-3.6-11.6   V456l-21.8-346.3h290.3L379.5,456z"/>
	<path d="M256,146.3c-10.1,0-18.3,8.2-18.3,18.3v256c0,10.1,8.2,18.3,18.3,18.3c10.1,0,18.3-8.2,18.3-18.3v-256   C274.3,154.5,266.1,146.3,256,146.3z"/>
	<path d="M173,146.3c-10,0.4-17.9,8.8-17.6,18.9l9.1,256c0.4,10.1,8.8,18,18.9,17.6c10.1-0.4,18-8.8,17.6-18.9l-9.1-256   C191.5,153.8,183.1,145.9,173,146.3z"/>
	<path d="M320,163.9l-9.1,256c-0.4,10.1,7.5,18.6,17.6,18.9c10.1,0.4,18.6-7.5,18.9-17.6l9.1-256c0.4-10.1-7.5-18.6-17.6-18.9   C328.8,145.9,320.4,153.8,320,163.9z"/>
</g>
</svg>